<svg xmlns="http://www.w3.org/2000/svg" xmlns:xlink="http://www.w3.org/1999/xlink" width="40" zoomAndPan="magnify" viewBox="0 0 30 30.000001" height="40" preserveAspectRatio="xMidYMid meet" version="1.0"><defs><clipPath id="id1"><path d="M 5.332031 1.453125 L 24.929688 1.453125 L 24.929688 27.582031 L 5.332031 27.582031 Z M 5.332031 1.453125 " clip-rule="nonzero"/></clipPath></defs><g clip-path="url(#id1)"><path fill="rgb(100%, 100%, 100%)" d="M 23.769531 7.132812 L 20.890625 7.132812 L 20.890625 6.371094 C 20.890625 3.660156 18.304688 1.453125 15.128906 1.453125 C 11.957031 1.453125 9.371094 3.660156 9.371094 6.371094 L 9.371094 7.132812 L 6.492188 7.132812 C 6.335938 7.132812 6.191406 7.160156 6.050781 7.21875 C 5.910156 7.277344 5.785156 7.359375 5.675781 7.464844 C 5.566406 7.570312 5.484375 7.695312 5.425781 7.832031 C 5.367188 7.972656 5.339844 8.117188 5.339844 8.269531 L 5.339844 26.445312 C 5.339844 26.59375 5.367188 26.738281 5.425781 26.878906 C 5.484375 27.019531 5.566406 27.140625 5.675781 27.246094 C 5.785156 27.355469 5.910156 27.4375 6.050781 27.496094 C 6.191406 27.550781 6.335938 27.582031 6.492188 27.582031 L 23.769531 27.582031 C 23.921875 27.582031 24.070312 27.550781 24.210938 27.496094 C 24.351562 27.4375 24.476562 27.355469 24.585938 27.246094 C 24.695312 27.140625 24.777344 27.019531 24.835938 26.878906 C 24.894531 26.738281 24.921875 26.59375 24.921875 26.445312 L 24.921875 8.269531 C 24.921875 8.117188 24.894531 7.972656 24.835938 7.832031 C 24.777344 7.695312 24.695312 7.570312 24.585938 7.464844 C 24.476562 7.359375 24.351562 7.277344 24.210938 7.21875 C 24.070312 7.160156 23.921875 7.132812 23.769531 7.132812 Z M 11.675781 6.371094 C 11.675781 4.910156 13.222656 3.722656 15.128906 3.722656 C 17.039062 3.722656 18.585938 4.910156 18.585938 6.371094 L 18.585938 7.132812 L 11.675781 7.132812 Z M 22.617188 25.308594 L 7.640625 25.308594 L 7.640625 9.402344 L 9.371094 9.402344 L 9.371094 10.539062 C 9.371094 10.691406 9.398438 10.835938 9.457031 10.976562 C 9.515625 11.113281 9.601562 11.238281 9.707031 11.34375 C 9.816406 11.449219 9.941406 11.53125 10.082031 11.589844 C 10.222656 11.648438 10.371094 11.675781 10.523438 11.675781 C 10.675781 11.675781 10.820312 11.648438 10.964844 11.589844 C 11.105469 11.53125 11.230469 11.449219 11.335938 11.34375 C 11.445312 11.238281 11.527344 11.113281 11.585938 10.976562 C 11.644531 10.835938 11.675781 10.691406 11.675781 10.539062 L 11.675781 9.402344 L 18.585938 9.402344 L 18.585938 10.539062 C 18.585938 10.691406 18.617188 10.835938 18.675781 10.976562 C 18.734375 11.113281 18.816406 11.238281 18.925781 11.34375 C 19.03125 11.449219 19.15625 11.53125 19.296875 11.589844 C 19.4375 11.648438 19.585938 11.675781 19.738281 11.675781 C 19.890625 11.675781 20.039062 11.648438 20.179688 11.589844 C 20.320312 11.53125 20.445312 11.449219 20.554688 11.34375 C 20.660156 11.238281 20.746094 11.113281 20.804688 10.976562 C 20.863281 10.835938 20.890625 10.691406 20.890625 10.539062 L 20.890625 9.402344 L 22.617188 9.402344 Z M 22.617188 25.308594 " fill-opacity="1" fill-rule="nonzero"/></g></svg>