<svg xmlns="http://www.w3.org/2000/svg" xmlns:xlink="http://www.w3.org/1999/xlink" width="150" zoomAndPan="magnify" viewBox="0 0 112.5 112.499997" height="150" preserveAspectRatio="xMidYMid meet" version="1.0"><defs><g/><clipPath id="id1"><path d="M 20 42 L 49 42 L 49 71 L 20 71 Z M 20 42 " clip-rule="nonzero"/></clipPath><clipPath id="id2"><path d="M 15.191406 56.195312 L 34.285156 37.105469 L 53.90625 56.726562 L 34.8125 75.816406 Z M 15.191406 56.195312 " clip-rule="nonzero"/></clipPath><clipPath id="id3"><path d="M 15.191406 56.195312 L 34.285156 37.105469 L 53.90625 56.726562 L 34.8125 75.816406 Z M 15.191406 56.195312 " clip-rule="nonzero"/></clipPath></defs><g clip-path="url(#id1)"><g clip-path="url(#id2)"><g clip-path="url(#id3)"><path fill="rgb(100%, 100%, 100%)" d="M 42.820312 45.660156 L 41.929688 45.054688 L 32.535156 59.21875 L 38.75 43.484375 L 37.753906 43.074219 L 32.273438 56.9375 L 35.523438 42.832031 L 34.484375 42.570312 L 30.519531 59.792969 L 29.851562 43.597656 L 28.789062 43.617188 L 29.476562 60.496094 L 24.585938 47.445312 L 23.585938 47.800781 L 28.5625 61.066406 L 21.664062 52.824219 L 20.855469 53.5 L 27.027344 60.875 L 21.335938 56.761719 L 20.722656 57.621094 L 27.636719 62.625 L 22.429688 61.347656 L 22.195312 62.386719 L 28.355469 63.894531 L 24.847656 65.234375 L 25.246094 66.230469 L 28.984375 64.808594 L 27.4375 67.675781 L 28.382812 68.199219 L 29.683594 65.785156 L 29.800781 69.058594 L 30.871094 69.046875 L 30.757812 65.902344 L 33.128906 70.011719 L 34.046875 69.496094 L 32.609375 66.996094 L 35.738281 70.128906 L 36.488281 69.378906 L 34.242188 67.132812 L 38.195312 69.75 L 38.773438 68.867188 L 32.929688 64.996094 L 43.066406 67.410156 L 43.296875 66.371094 L 38.679688 65.273438 L 44.691406 65.941406 L 44.789062 64.878906 L 34.695312 63.753906 L 47.167969 62.191406 L 47.015625 61.128906 L 36.652344 62.433594 L 48.117188 59.050781 L 47.792969 58.027344 L 37.71875 60.996094 L 48.308594 56.269531 L 47.855469 55.289062 L 36.050781 60.5625 L 47.769531 52.878906 L 47.171875 51.976562 L 34.242188 60.457031 L 45.855469 48.84375 L 45.09375 48.082031 L 33.574219 59.601562 Z M 42.820312 45.660156 " fill-opacity="1" fill-rule="nonzero"/></g></g></g><g fill="rgb(100%, 100%, 100%)" fill-opacity="1"><g transform="translate(53.933468, 54.674996)"><g><path d="M 7.488281 -5.601562 C 7.371094 -6.941406 6.4375 -7.832031 4.765625 -7.832031 C 3.988281 -7.832031 3.425781 -7.703125 2.777344 -7.199219 L 2.304688 -6.320312 L 2.304688 -7.632812 L 1.066406 -7.632812 L 1.066406 0 L 2.304688 0 L 2.304688 -3.355469 C 2.304688 -5.960938 3.3125 -6.855469 4.507812 -6.855469 C 5.6875 -6.855469 6.175781 -6.191406 6.25 -5.300781 C 6.277344 -4.910156 6.277344 -4.59375 6.277344 -4.203125 L 6.277344 0 L 7.515625 0 L 7.515625 -4.292969 C 7.515625 -4.910156 7.515625 -5.210938 7.488281 -5.601562 Z M 7.488281 -5.601562 "/></g></g></g><g fill="rgb(100%, 100%, 100%)" fill-opacity="1"><g transform="translate(62.112653, 54.674996)"><g><path d="M 4.21875 -7.832031 C 1.628906 -7.832031 0.433594 -5.976562 0.433594 -3.816406 C 0.433594 -1.671875 1.628906 0.203125 4.21875 0.203125 C 6.8125 0.203125 8.007812 -1.671875 8.007812 -3.816406 C 8.007812 -5.976562 6.8125 -7.832031 4.21875 -7.832031 Z M 4.21875 -0.75 C 2.679688 -0.75 1.785156 -2.03125 1.785156 -3.816406 C 1.785156 -5.617188 2.679688 -6.882812 4.21875 -6.882812 C 5.761719 -6.882812 6.652344 -5.617188 6.652344 -3.816406 C 6.652344 -2.03125 5.761719 -0.75 4.21875 -0.75 Z M 4.21875 -0.75 "/></g></g></g><g fill="rgb(100%, 100%, 100%)" fill-opacity="1"><g transform="translate(70.191038, 54.674996)"><g><path d="M 7.328125 -4.03125 C 7.328125 -6.265625 6.164062 -7.832031 4.0625 -7.832031 C 1.972656 -7.832031 0.433594 -6.265625 0.433594 -3.789062 C 0.433594 -1.09375 1.914062 0.203125 3.902344 0.203125 C 5.472656 0.203125 6.925781 -0.621094 7.230469 -2.460938 L 5.933594 -2.460938 C 5.761719 -1.367188 4.953125 -0.75 3.960938 -0.75 C 2.835938 -0.75 1.886719 -1.425781 1.769531 -3.441406 L 7.300781 -3.441406 C 7.328125 -3.714844 7.328125 -3.917969 7.328125 -4.03125 Z M 4.03125 -6.882812 C 5.285156 -6.882812 5.960938 -5.976562 6.078125 -4.390625 L 1.785156 -4.390625 C 1.929688 -6.019531 2.824219 -6.882812 4.03125 -6.882812 Z M 4.03125 -6.882812 "/></g></g></g><g fill="rgb(100%, 100%, 100%)" fill-opacity="1"><g transform="translate(77.736625, 54.674996)"><g><path d="M 2.546875 -6.625 L 3.972656 -6.625 L 3.972656 -7.574219 L 2.546875 -7.574219 L 2.546875 -9.34375 L 1.308594 -9.34375 L 1.308594 -7.574219 L 0.289062 -7.574219 L 0.289062 -6.625 L 1.308594 -6.625 L 1.308594 -2.175781 C 1.308594 -1.742188 1.308594 -1.425781 1.324219 -1.222656 C 1.398438 -0.273438 1.886719 0.113281 2.835938 0.113281 C 3.183594 0.113281 3.527344 0.101562 3.886719 0.0429688 L 3.886719 -0.863281 C 2.921875 -0.75 2.621094 -0.90625 2.5625 -1.640625 C 2.546875 -1.84375 2.546875 -1.972656 2.546875 -2.230469 Z M 2.546875 -6.625 "/></g></g></g><g fill="rgb(100%, 100%, 100%)" fill-opacity="1"><g transform="translate(81.883817, 54.674996)"><g><path d="M 1.683594 -10.136719 C 1.238281 -10.136719 0.894531 -9.792969 0.894531 -9.34375 C 0.894531 -8.898438 1.238281 -8.554688 1.683594 -8.554688 C 2.132812 -8.554688 2.476562 -8.898438 2.476562 -9.34375 C 2.476562 -9.792969 2.132812 -10.136719 1.683594 -10.136719 Z M 2.304688 0 L 2.304688 -7.632812 L 1.066406 -7.632812 L 1.066406 0 Z M 2.304688 0 "/></g></g></g><g fill="rgb(100%, 100%, 100%)" fill-opacity="1"><g transform="translate(84.951011, 54.674996)"><g><path d="M 4.019531 -7.832031 C 2.101562 -7.832031 0.433594 -6.378906 0.433594 -3.800781 C 0.433594 -1.007812 1.902344 0.203125 3.832031 0.203125 C 5.53125 0.203125 6.796875 -0.664062 7.171875 -2.433594 L 5.875 -2.433594 C 5.617188 -1.324219 4.910156 -0.75 3.902344 -0.75 C 2.765625 -0.75 1.785156 -1.671875 1.785156 -3.886719 C 1.785156 -5.945312 2.792969 -6.882812 3.988281 -6.882812 C 5.011719 -6.882812 5.671875 -6.292969 5.945312 -5.070312 L 7.242188 -5.070312 C 7.011719 -6.738281 5.847656 -7.832031 4.019531 -7.832031 Z M 4.019531 -7.832031 "/></g></g></g><g fill="rgb(100%, 100%, 100%)" fill-opacity="1"><g transform="translate(53.933468, 66.149996)"><g><path d="M 4.019531 -7.832031 C 2.101562 -7.832031 0.433594 -6.378906 0.433594 -3.800781 C 0.433594 -1.007812 1.902344 0.203125 3.832031 0.203125 C 5.53125 0.203125 6.796875 -0.664062 7.171875 -2.433594 L 5.875 -2.433594 C 5.617188 -1.324219 4.910156 -0.75 3.902344 -0.75 C 2.765625 -0.75 1.785156 -1.671875 1.785156 -3.886719 C 1.785156 -5.945312 2.792969 -6.882812 3.988281 -6.882812 C 5.011719 -6.882812 5.671875 -6.292969 5.945312 -5.070312 L 7.242188 -5.070312 C 7.011719 -6.738281 5.847656 -7.832031 4.019531 -7.832031 Z M 4.019531 -7.832031 "/></g></g></g><g fill="rgb(100%, 100%, 100%)" fill-opacity="1"><g transform="translate(61.191055, 66.149996)"><g><path d="M 4.21875 -7.832031 C 1.628906 -7.832031 0.433594 -5.976562 0.433594 -3.816406 C 0.433594 -1.671875 1.628906 0.203125 4.21875 0.203125 C 6.8125 0.203125 8.007812 -1.671875 8.007812 -3.816406 C 8.007812 -5.976562 6.8125 -7.832031 4.21875 -7.832031 Z M 4.21875 -0.75 C 2.679688 -0.75 1.785156 -2.03125 1.785156 -3.816406 C 1.785156 -5.617188 2.679688 -6.882812 4.21875 -6.882812 C 5.761719 -6.882812 6.652344 -5.617188 6.652344 -3.816406 C 6.652344 -2.03125 5.761719 -0.75 4.21875 -0.75 Z M 4.21875 -0.75 "/></g></g></g><g fill="rgb(100%, 100%, 100%)" fill-opacity="1"><g transform="translate(69.26944, 66.149996)"><g><path d="M 4.0625 -7.804688 C 3.699219 -7.804688 3.3125 -7.675781 2.996094 -7.460938 L 2.304688 -6.4375 L 2.304688 -7.632812 L 1.066406 -7.632812 L 1.066406 0 L 2.304688 0 L 2.304688 -4.347656 C 2.304688 -6.089844 3.28125 -6.855469 4.578125 -6.769531 L 4.578125 -7.703125 C 4.433594 -7.777344 4.261719 -7.804688 4.0625 -7.804688 Z M 4.0625 -7.804688 "/></g></g></g><g fill="rgb(100%, 100%, 100%)" fill-opacity="1"><g transform="translate(73.661432, 66.149996)"><g><path d="M 4.894531 -7.832031 C 4.117188 -7.832031 3.3125 -7.589844 2.878906 -7.230469 L 2.304688 -6.40625 L 2.304688 -7.632812 L 1.066406 -7.632812 L 1.066406 2.824219 L 2.304688 2.824219 L 2.304688 -1.050781 L 2.808594 -0.300781 C 3.195312 0.015625 4.003906 0.203125 4.636719 0.203125 C 6.609375 0.203125 8.367188 -1.109375 8.367188 -3.929688 C 8.367188 -6.164062 7.128906 -7.832031 4.894531 -7.832031 Z M 4.636719 -0.75 C 3.542969 -0.75 2.304688 -1.496094 2.304688 -3.46875 L 2.304688 -3.886719 C 2.304688 -6.078125 3.441406 -6.882812 4.707031 -6.882812 C 6.234375 -6.882812 7.011719 -5.515625 7.011719 -3.789062 C 7.011719 -1.785156 5.976562 -0.75 4.636719 -0.75 Z M 4.636719 -0.75 "/></g></g></g><g fill="rgb(100%, 100%, 100%)" fill-opacity="1"><g transform="translate(82.099815, 66.149996)"><g><path d="M 1.453125 -1.640625 C 0.921875 -1.640625 0.53125 -1.253906 0.53125 -0.71875 C 0.53125 -0.1875 0.921875 0.203125 1.453125 0.203125 C 1.988281 0.203125 2.375 -0.1875 2.375 -0.71875 C 2.375 -1.253906 1.988281 -1.640625 1.453125 -1.640625 Z M 1.453125 -1.640625 "/></g></g></g></svg>