<svg xmlns="http://www.w3.org/2000/svg" xmlns:xlink="http://www.w3.org/1999/xlink" width="40" zoomAndPan="magnify" viewBox="0 0 30 30.000001" height="40" preserveAspectRatio="xMidYMid meet" version="1.0"><defs><clipPath id="id1"><path d="M 17 17 L 28 17 L 28 27.582031 L 17 27.582031 Z M 17 17 " clip-rule="nonzero"/></clipPath></defs><path fill="rgb(100%, 100%, 100%)" d="M 12.726562 22.316406 C 12.316406 22.316406 11.910156 22.292969 11.507812 22.242188 C 11.101562 22.191406 10.699219 22.117188 10.304688 22.019531 C 9.90625 21.917969 9.519531 21.796875 9.136719 21.648438 C 8.757812 21.503906 8.386719 21.332031 8.023438 21.140625 C 7.664062 20.949219 7.316406 20.734375 6.984375 20.5 C 6.648438 20.265625 6.332031 20.011719 6.027344 19.734375 C 5.726562 19.460938 5.441406 19.167969 5.175781 18.859375 C 4.90625 18.550781 4.660156 18.226562 4.433594 17.886719 C 4.207031 17.546875 4 17.195312 3.816406 16.832031 C 3.632812 16.464844 3.472656 16.089844 3.335938 15.707031 C 3.199219 15.320312 3.085938 14.929688 2.996094 14.53125 C 2.90625 14.132812 2.839844 13.730469 2.800781 13.324219 C 2.761719 12.917969 2.746094 12.511719 2.753906 12.101562 C 2.765625 11.695312 2.800781 11.289062 2.859375 10.882812 C 2.921875 10.480469 3.003906 10.082031 3.113281 9.6875 C 3.222656 9.292969 3.355469 8.90625 3.511719 8.53125 C 3.667969 8.152344 3.847656 7.785156 4.046875 7.429688 C 4.25 7.078125 4.472656 6.734375 4.714844 6.40625 C 4.957031 6.078125 5.222656 5.765625 5.503906 5.472656 C 5.785156 5.175781 6.082031 4.898438 6.398438 4.636719 C 6.714844 4.378906 7.046875 4.140625 7.390625 3.921875 C 7.734375 3.703125 8.09375 3.507812 8.460938 3.332031 C 8.832031 3.160156 9.210938 3.007812 9.597656 2.878906 C 9.984375 2.75 10.378906 2.648438 10.78125 2.566406 C 11.183594 2.488281 11.585938 2.433594 11.992188 2.402344 C 12.402344 2.375 12.808594 2.371094 13.214844 2.390625 C 13.625 2.410156 14.027344 2.453125 14.433594 2.523438 C 14.835938 2.59375 15.230469 2.691406 15.621094 2.808594 C 16.011719 2.925781 16.394531 3.070312 16.769531 3.234375 C 17.140625 3.402344 17.503906 3.589844 17.851562 3.800781 C 18.203125 4.007812 18.539062 4.238281 18.859375 4.492188 C 19.183594 4.742188 19.488281 5.011719 19.777344 5.300781 C 20.472656 6 21.054688 6.78125 21.519531 7.652344 C 21.984375 8.519531 22.316406 9.4375 22.507812 10.40625 C 22.699219 11.375 22.746094 12.347656 22.652344 13.328125 C 22.554688 14.308594 22.316406 15.253906 21.941406 16.167969 C 21.5625 17.078125 21.0625 17.914062 20.4375 18.675781 C 19.808594 19.4375 19.085938 20.09375 18.265625 20.640625 C 17.445312 21.1875 16.566406 21.605469 15.621094 21.890625 C 14.675781 22.175781 13.710938 22.316406 12.726562 22.316406 Z M 12.726562 4.574219 C 12.429688 4.574219 12.132812 4.589844 11.835938 4.621094 C 11.542969 4.65625 11.25 4.707031 10.957031 4.773438 C 10.667969 4.839844 10.382812 4.921875 10.105469 5.023438 C 9.824219 5.121094 9.550781 5.238281 9.28125 5.371094 C 9.015625 5.5 8.757812 5.644531 8.507812 5.808594 C 8.257812 5.96875 8.015625 6.140625 7.785156 6.332031 C 7.554688 6.519531 7.335938 6.71875 7.128906 6.933594 C 6.921875 7.144531 6.726562 7.371094 6.546875 7.605469 C 6.363281 7.84375 6.199219 8.085938 6.042969 8.34375 C 5.890625 8.597656 5.753906 8.859375 5.628906 9.132812 C 5.507812 9.402344 5.398438 9.679688 5.308594 9.960938 C 5.214844 10.246094 5.140625 10.53125 5.082031 10.824219 C 5.023438 11.117188 4.984375 11.410156 4.957031 11.707031 C 4.933594 12.003906 4.925781 12.300781 4.933594 12.597656 C 4.945312 12.894531 4.96875 13.191406 5.011719 13.484375 C 5.058594 13.777344 5.117188 14.070312 5.195312 14.355469 C 5.269531 14.644531 5.363281 14.925781 5.472656 15.203125 C 5.582031 15.480469 5.707031 15.75 5.84375 16.011719 C 5.984375 16.273438 6.140625 16.527344 6.308594 16.773438 C 6.476562 17.015625 6.660156 17.25 6.855469 17.476562 C 7.050781 17.699219 7.261719 17.910156 7.480469 18.109375 C 7.699219 18.3125 7.933594 18.496094 8.171875 18.671875 C 8.414062 18.84375 8.664062 19.003906 8.925781 19.148438 C 9.1875 19.292969 9.453125 19.421875 9.726562 19.535156 C 10.003906 19.652344 10.28125 19.75 10.570312 19.832031 C 10.855469 19.914062 11.144531 19.976562 11.4375 20.027344 C 11.730469 20.074219 12.027344 20.105469 12.324219 20.121094 C 12.621094 20.136719 12.917969 20.132812 13.214844 20.113281 C 13.511719 20.09375 13.804688 20.058594 14.097656 20.003906 C 14.390625 19.953125 14.679688 19.882812 14.964844 19.796875 C 15.25 19.710938 15.527344 19.609375 15.800781 19.488281 C 16.074219 19.371094 16.339844 19.238281 16.597656 19.089844 C 16.855469 18.941406 17.101562 18.777344 17.34375 18.601562 C 17.582031 18.421875 17.808594 18.234375 18.027344 18.03125 C 18.242188 17.828125 18.449219 17.609375 18.640625 17.382812 C 18.832031 17.15625 19.011719 16.921875 19.175781 16.671875 C 19.34375 16.425781 19.492188 16.167969 19.628906 15.90625 C 19.765625 15.640625 19.886719 15.367188 19.988281 15.089844 C 20.09375 14.8125 20.183594 14.527344 20.253906 14.238281 C 20.328125 13.953125 20.382812 13.660156 20.421875 13.363281 C 20.460938 13.070312 20.480469 12.773438 20.488281 12.476562 C 20.492188 12.179688 20.480469 11.882812 20.449219 11.585938 C 20.421875 11.289062 20.375 10.996094 20.3125 10.707031 C 20.25 10.414062 20.167969 10.128906 20.074219 9.847656 C 19.976562 9.566406 19.867188 9.289062 19.738281 9.023438 C 19.609375 8.753906 19.46875 8.492188 19.3125 8.238281 C 19.15625 7.988281 18.984375 7.746094 18.796875 7.511719 C 18.613281 7.277344 18.414062 7.058594 18.203125 6.847656 C 17.476562 6.121094 16.640625 5.558594 15.691406 5.167969 C 14.742188 4.773438 13.753906 4.574219 12.726562 4.574219 Z M 12.726562 4.574219 " fill-opacity="1" fill-rule="nonzero"/><g clip-path="url(#id1)"><path fill="rgb(100%, 100%, 100%)" d="M 26.859375 27.582031 C 26.558594 27.578125 26.300781 27.472656 26.085938 27.257812 L 18.226562 19.402344 C 18.125 19.300781 18.042969 19.179688 17.988281 19.046875 C 17.933594 18.914062 17.90625 18.773438 17.90625 18.628906 C 17.90625 18.480469 17.933594 18.34375 17.988281 18.207031 C 18.042969 18.074219 18.125 17.953125 18.226562 17.851562 C 18.328125 17.75 18.449219 17.671875 18.582031 17.613281 C 18.714844 17.558594 18.855469 17.53125 19 17.53125 C 19.148438 17.53125 19.285156 17.558594 19.421875 17.613281 C 19.554688 17.671875 19.675781 17.75 19.777344 17.851562 L 27.632812 25.710938 C 27.789062 25.871094 27.886719 26.054688 27.929688 26.273438 C 27.972656 26.488281 27.953125 26.699219 27.867188 26.902344 C 27.78125 27.109375 27.648438 27.269531 27.464844 27.394531 C 27.28125 27.519531 27.082031 27.578125 26.859375 27.582031 Z M 26.859375 27.582031 " fill-opacity="1" fill-rule="nonzero"/></g></svg>