<svg xmlns="http://www.w3.org/2000/svg" xmlns:xlink="http://www.w3.org/1999/xlink" width="40" zoomAndPan="magnify" viewBox="0 0 30 30.000001" height="40" preserveAspectRatio="xMidYMid meet" version="1.0"><defs><clipPath id="id1"><path d="M 1.933594 1.453125 L 28.066406 1.453125 L 28.066406 27.582031 L 1.933594 27.582031 Z M 1.933594 1.453125 " clip-rule="nonzero"/></clipPath></defs><g clip-path="url(#id1)"><path fill="rgb(100%, 100%, 100%)" d="M 15 1.453125 C 7.796875 1.453125 1.933594 7.3125 1.933594 14.515625 C 1.933594 18.578125 3.769531 22.332031 6.957031 24.804688 C 8.792969 26.25 10.980469 27.171875 13.261719 27.460938 C 13.828125 27.542969 14.414062 27.582031 15 27.582031 C 15.585938 27.582031 16.171875 27.542969 16.722656 27.464844 C 19.019531 27.171875 21.207031 26.25 23.039062 24.808594 C 26.234375 22.332031 28.066406 18.578125 28.066406 14.515625 C 28.066406 7.3125 22.203125 1.453125 15 1.453125 Z M 22.464844 22.835938 L 22.464844 21.570312 C 22.464844 19.742188 19.125 18.25 15 18.25 C 10.875 18.25 7.535156 19.742188 7.535156 21.570312 L 7.535156 22.835938 C 5.164062 20.726562 3.800781 17.742188 3.800781 14.515625 C 3.800781 8.339844 8.824219 3.316406 15 3.316406 C 21.175781 3.316406 26.199219 8.339844 26.199219 14.515625 C 26.199219 17.738281 24.839844 20.71875 22.464844 22.835938 Z M 22.464844 22.835938 " fill-opacity="1" fill-rule="nonzero"/></g><path fill="rgb(100%, 100%, 100%)" d="M 19.664062 11.714844 C 19.664062 12.023438 19.636719 12.328125 19.578125 12.625 C 19.515625 12.925781 19.429688 13.21875 19.3125 13.503906 C 19.195312 13.785156 19.050781 14.054688 18.878906 14.308594 C 18.710938 14.5625 18.515625 14.800781 18.300781 15.015625 C 18.082031 15.234375 17.847656 15.425781 17.59375 15.597656 C 17.335938 15.765625 17.070312 15.910156 16.785156 16.027344 C 16.503906 16.144531 16.210938 16.234375 15.910156 16.292969 C 15.609375 16.351562 15.304688 16.382812 15 16.382812 C 14.695312 16.382812 14.390625 16.351562 14.089844 16.292969 C 13.789062 16.234375 13.496094 16.144531 13.214844 16.027344 C 12.929688 15.910156 12.664062 15.765625 12.40625 15.597656 C 12.152344 15.425781 11.917969 15.234375 11.699219 15.015625 C 11.484375 14.800781 11.289062 14.5625 11.121094 14.308594 C 10.949219 14.054688 10.804688 13.785156 10.6875 13.503906 C 10.570312 13.21875 10.484375 12.925781 10.421875 12.625 C 10.363281 12.328125 10.335938 12.023438 10.335938 11.714844 C 10.335938 11.410156 10.363281 11.105469 10.421875 10.804688 C 10.484375 10.503906 10.570312 10.214844 10.6875 9.929688 C 10.804688 9.648438 10.949219 9.378906 11.121094 9.125 C 11.289062 8.871094 11.484375 8.632812 11.699219 8.417969 C 11.917969 8.199219 12.152344 8.007812 12.40625 7.835938 C 12.664062 7.667969 12.929688 7.523438 13.214844 7.40625 C 13.496094 7.289062 13.789062 7.199219 14.089844 7.140625 C 14.390625 7.082031 14.695312 7.050781 15 7.050781 C 15.304688 7.050781 15.609375 7.082031 15.910156 7.140625 C 16.210938 7.199219 16.503906 7.289062 16.785156 7.40625 C 17.070312 7.523438 17.335938 7.667969 17.59375 7.835938 C 17.847656 8.007812 18.082031 8.199219 18.300781 8.417969 C 18.515625 8.632812 18.710938 8.871094 18.878906 9.125 C 19.050781 9.378906 19.195312 9.648438 19.3125 9.929688 C 19.429688 10.214844 19.515625 10.503906 19.578125 10.804688 C 19.636719 11.105469 19.664062 11.410156 19.664062 11.714844 Z M 19.664062 11.714844 " fill-opacity="1" fill-rule="nonzero"/></svg>